<?xml version="1.0" encoding="UTF-8" standalone="no"?><!DOCTYPE svg PUBLIC "-//W3C//DTD SVG 1.1//EN" "http://www.w3.org/Graphics/SVG/1.1/DTD/svg11.dtd"><svg width="100%" height="100%" viewBox="0 0 500 500" version="1.1" xmlns="http://www.w3.org/2000/svg" xmlns:xlink="http://www.w3.org/1999/xlink" xml:space="preserve" xmlns:serif="http://www.serif.com/" style="fill-rule:evenodd;clip-rule:evenodd;stroke-linejoin:round;stroke-miterlimit:2;"><rect id="OnlyLOGO" x="0" y="0" width="500" height="500" style="fill:none;"/><g id="OnlyLOGO1" serif:id="OnlyLOGO"><g><path d="M234.562,69.558c1.298,13.64 2.598,27.281 1.461,42.221c-1.137,14.939 -4.708,31.179 -13.64,49.529c-8.932,18.348 -23.221,38.81 -42.383,57.972c-19.162,19.162 -43.197,37.024 -59.597,52.451c-16.401,15.427 -25.17,28.417 -29.878,42.059c-4.71,13.64 -5.36,27.93 -0.488,47.742c4.871,19.811 15.264,45.144 31.179,62.031c15.914,16.889 37.349,25.334 60.896,31.666c23.546,6.334 49.204,10.555 74.86,14.777c-15.264,-4.547 -30.529,-9.093 -48.206,-20.896c-17.679,-11.801 -37.772,-30.858 -48.138,-45.56c-10.366,-14.702 -11.005,-25.05 -6.53,-30.877c4.476,-5.828 14.067,-7.133 22.16,-5.747c8.092,1.386 14.685,5.466 22.997,8.758c8.31,3.29 18.338,5.793 26.458,5.63c8.119,-0.163 14.332,-2.99 17.6,-7.651c3.267,-4.662 3.592,-11.157 2.617,-16.679c-0.974,-5.521 -3.248,-10.068 -2.923,-14.127c0.326,-4.061 3.247,-7.633 6.695,-9.991c3.446,-2.36 7.416,-3.502 9.714,-4.984c2.3,-1.484 2.928,-3.304 2.079,-5.005c-0.848,-1.702 -3.172,-3.284 -4.984,-6.186c-1.812,-2.902 -3.111,-7.126 -0.518,-9.72c2.595,-2.595 9.08,-3.563 11.841,-5.187c2.761,-1.624 1.795,-3.905 0.825,-7.479c-0.97,-3.576 -1.944,-8.449 -1.295,-12.832c0.65,-4.385 2.923,-8.283 8.2,-10.872c5.276,-2.59 13.555,-3.874 19.084,-5.257c5.53,-1.385 8.309,-2.871 8.553,-5.315c0.245,-2.444 -2.044,-5.847 -8.872,-12.906c-6.828,-7.061 -18.196,-17.778 -24.692,-31.743c-6.495,-13.966 -8.119,-31.179 -7.469,-45.794c0.65,-14.615 3.572,-26.633 3.085,-39.298c-0.487,-12.667 -4.384,-25.982 -10.068,-36.213c-5.683,-10.231 -13.153,-17.375 -20.623,-24.52Z" style="fill:url(#_Linear1);"/><path d="M303.565,469.906c-6.386,-13.508 -12.772,-27.016 -17.193,-47.649c-4.42,-20.631 -6.876,-48.384 -1.027,-71.369c5.851,-22.987 20.007,-41.203 38.427,-52.132c18.421,-10.931 41.105,-14.572 63.791,-18.215c-15.228,8.842 -30.455,17.683 -40.648,27.263c-10.193,9.579 -15.351,19.894 -20.51,30.21c20.537,-6.236 41.073,-12.472 61.566,-24.16c20.492,-11.689 40.941,-28.831 54.497,-44.992c13.557,-16.163 20.219,-31.346 26.882,-46.53c-0.491,10.315 -0.981,20.631 -5.892,36.023c-4.909,15.392 -14.239,35.858 -30.636,55.101c-16.395,19.24 -39.857,37.256 -63.814,48.213c-23.957,10.957 -48.41,14.857 -59.4,31.721c-10.99,16.863 -8.516,46.689 -6.043,76.515Z" style="fill:#d43694;"/><path d="M243.909,60.211l197.257,0l0,183.907l-16.927,17.717l0,-182.962l-163.986,0l-16.344,-18.662Zm197.257,264.13l0,140.617l-125.63,0l0,-18.662l108.703,0l0,-104.239l16.927,-17.716Z" style="fill:#5f227c;"/><path d="M72.375,396.584c-2.261,-8.732 -4.521,-17.465 -5.034,-29.281c-0.514,-11.815 0.719,-26.712 4.674,-40.787c3.955,-14.075 10.633,-27.328 16.695,-37.963c6.062,-10.633 11.506,-18.647 17.979,-27.123c6.472,-8.476 13.973,-17.414 21.781,-26.814c7.808,-9.401 15.924,-19.264 21.935,-27.483c6.011,-8.22 9.914,-14.794 12.277,-18.956c2.363,-4.161 3.185,-5.907 4.007,-7.654c0.419,0.891 0.838,1.781 1.711,3.219c0.873,1.438 2.202,3.424 4.149,5.958c1.948,2.535 4.517,5.616 7.548,8.545c3.031,2.928 6.524,5.702 10.119,8.527c3.596,2.825 7.294,5.702 10.993,8.579c-0.206,-2.877 -0.411,-5.754 0.051,-10.736c0.462,-4.983 1.593,-12.072 2.054,-18.905c0.463,-6.832 0.257,-13.407 -0.924,-19.007c-1.181,-5.599 -3.339,-10.222 -6.164,-14.486c-2.825,-4.264 -6.319,-8.168 -9.71,-11.353c-3.389,-3.184 -6.677,-5.651 -9.965,-8.116c0,5.548 0,11.096 0.668,17.465c0.667,6.37 2.003,13.561 3.236,18.185c1.233,4.624 2.363,6.678 3.493,8.733c-3.493,-4.521 -6.986,-9.042 -9.092,-13.51c-2.106,-4.469 -2.825,-8.887 -3.339,-12.791c-0.513,-3.904 -0.822,-7.295 -1.13,-10.685c-0.103,3.801 -0.206,7.602 -3.031,14.383c-2.825,6.781 -8.373,16.541 -15.36,27.483c-6.986,10.941 -15.41,23.064 -24.143,34.263c-8.732,11.199 -17.774,21.473 -26.404,32.26c-8.63,10.787 -16.849,22.088 -24.195,34.366c-7.345,12.277 -13.818,25.53 -17.004,36.78c-3.184,11.249 -3.082,20.496 -2.363,30.257c0.719,9.76 2.055,20.034 4.572,27.894c2.517,7.859 6.216,13.304 9.914,18.75Z" style="fill:#5f227c;"/><path d="M33.737,285.025c1.697,-7.505 3.395,-15.01 7.102,-22.291c3.708,-7.281 9.425,-14.339 19.387,-21.577c9.962,-7.236 24.167,-14.652 34.799,-21.442c10.632,-6.79 17.69,-12.955 23.139,-17.824c5.451,-4.87 9.292,-8.443 12.329,-12.553c3.038,-4.11 5.271,-8.756 7.505,-13.402c-7.975,8.017 -15.95,16.035 -26.582,22.244c-10.632,6.209 -23.92,10.611 -36.372,16.251c-12.452,5.641 -24.065,12.519 -31.616,20.65c-7.549,8.13 -11.034,17.511 -12.24,25.463c-1.206,7.952 -0.134,14.473 0.67,18.315c0.804,3.842 1.34,5.004 1.877,6.165Z" style="fill:#5f227c;"/><path d="M164.717,139.083c-5.092,5.539 -10.185,11.079 -16.037,16.261c-5.852,5.182 -12.463,10.006 -20.058,13.893c-7.594,3.886 -16.171,6.834 -26.669,6.88c-10.498,0.044 -22.917,-2.815 -32.343,-5.451c-9.425,-2.635 -15.859,-5.048 -22.291,-7.46c4.11,-2.055 8.22,-4.11 16.082,-10.096c7.862,-5.986 19.477,-15.904 27.92,-23.052c8.443,-7.148 13.715,-11.525 21.283,-13.312c7.568,-1.786 17.433,-0.983 27.299,-0.178c-3.343,-1.876 -6.686,-3.752 -11.574,-6.746c-4.888,-2.993 -11.321,-7.103 -16.011,-11.927c-4.691,-4.825 -7.639,-10.365 -9.605,-16.753c-1.966,-6.388 -2.948,-13.625 -4.557,-20.236c-1.608,-6.612 -3.842,-12.598 -6.388,-17.646c-2.546,-5.048 -5.405,-9.157 -8.264,-13.267c4.11,1.429 8.22,2.859 15.1,4.869c6.88,2.011 16.529,4.602 25.016,7.282c8.488,2.68 15.814,5.45 21.934,10.006c6.12,4.557 11.034,10.9 15.345,20.01c4.311,9.111 8.019,20.988 9.895,28.403c1.876,7.415 1.92,10.37 1.966,13.324c-1.966,-3.752 -3.931,-7.505 -6.835,-12.061c-2.903,-4.557 -6.745,-9.918 -10.408,-14.206c-3.663,-4.289 -7.148,-7.505 -11.034,-10.274c-3.886,-2.77 -8.175,-5.093 -11.569,-6.701c-3.395,-1.608 -5.897,-2.501 -8.399,-3.395c6.165,5.45 12.33,10.9 17.601,16.707c5.271,5.807 9.65,11.972 12.821,17.11c3.172,5.137 5.138,9.247 6.88,12.732c1.742,3.484 3.261,6.343 3.395,7.728c0.135,1.384 -1.116,1.295 -2.367,1.206c0.714,0.625 1.429,1.251 1.072,1.742c-0.357,0.491 -1.786,0.849 -3.753,2.1c-1.965,1.251 -4.466,3.395 -8.219,6.031c-3.752,2.636 -8.756,5.763 -14.117,8.399c-5.36,2.635 -11.079,4.779 -16.752,6.343c-5.673,1.564 -11.302,2.547 -16.93,3.529c3.127,0.804 6.253,1.608 12.284,1.608c6.031,0 14.966,-0.804 22.158,-2.859c7.192,-2.055 12.642,-5.361 16.707,-7.327c4.065,-1.966 6.746,-2.591 9.425,-3.216Z" style="fill:#5f227c;"/><path d="M182.191,134.766c4.972,4.5 9.945,9 14.801,12.415c4.856,3.416 9.595,5.747 13.907,7.106c4.312,1.36 8.197,1.748 13.558,1.088c5.361,-0.66 12.199,-2.37 17.093,-4.001c4.895,-1.632 7.847,-3.186 10.488,-4.118c2.642,-0.932 4.972,-1.243 7.304,-1.554c-4.817,-2.797 -9.635,-5.595 -14.646,-8.936c-5.011,-3.341 -10.217,-7.225 -14.257,-10.217c-4.04,-2.991 -6.915,-5.088 -10.333,-6.293c-3.419,-1.204 -7.381,-1.515 -12.044,-1.127c-4.661,0.389 -10.022,1.477 -14.296,2.487c-4.273,1.01 -7.458,1.942 -9.401,2.525c-1.943,0.583 -2.642,0.816 -1.515,1.903c1.127,1.088 4.079,3.031 7.42,4.817c3.341,1.787 7.07,3.419 10.877,4.623c3.807,1.205 7.693,1.981 11.189,2.526c3.497,0.544 6.604,0.854 6.137,1.243c-0.466,0.389 -4.506,0.855 -9.207,0.816c-4.701,-0.039 -10.062,-0.583 -14.684,-1.551c-4.623,-0.968 -8.508,-2.36 -12.393,-3.752Z" style="fill:#5f227c;"/><path d="M243.908,60.21c-1.692,3.246 -3.385,6.493 -5.552,10.446c-2.167,3.954 -4.808,8.615 -6.595,13.239c-1.787,4.623 -2.719,9.207 -5.089,13.286c-2.37,4.079 -6.177,7.653 -10.411,10.683c-4.234,3.03 -8.896,5.516 -13.946,7.718c-5.05,2.202 -10.489,4.118 -14.141,5.076c-3.652,0.959 -5.516,0.959 -7.381,0.959c1.243,-2.072 2.487,-4.144 5.594,-8.948c3.108,-4.804 8.08,-12.34 10.917,-16.614c2.836,-4.273 3.535,-5.283 1.903,-4.117c-1.632,1.165 -5.594,4.506 -8.974,7.458c-3.38,2.953 -6.177,5.517 -8.313,7.925c-2.137,2.409 -3.613,4.662 -5.089,6.915c0.621,-4.351 1.243,-8.702 4.701,-15.19c3.458,-6.487 9.751,-15.112 16.589,-21.405c6.837,-6.293 14.218,-10.256 21.094,-12.664c6.877,-2.409 13.248,-3.263 17.279,-3.799c4.032,-0.535 5.724,-0.752 7.416,-0.967Z" style="fill:#5f227c;"/></g></g><defs><linearGradient id="_Linear1" x1="0" y1="0" x2="1" y2="0" gradientUnits="userSpaceOnUse" gradientTransform="matrix(216.54562,0,0,-216.54562,86.673757,269.782121)"><stop offset="0" style="stop-color:#60227d;stop-opacity:1"/><stop offset="1" style="stop-color:#aa1c89;stop-opacity:1"/></linearGradient></defs></svg>