<?xml version="1.0" encoding="UTF-8" standalone="no"?><!DOCTYPE svg PUBLIC "-//W3C//DTD SVG 1.1//EN" "http://www.w3.org/Graphics/SVG/1.1/DTD/svg11.dtd"><svg width="100%" height="100%" viewBox="0 0 558 115" version="1.1" xmlns="http://www.w3.org/2000/svg" xmlns:xlink="http://www.w3.org/1999/xlink" xml:space="preserve" xmlns:serif="http://www.serif.com/" style="fill-rule:evenodd;clip-rule:evenodd;stroke-linejoin:round;stroke-miterlimit:2;"><rect id="Artboard1" x="0" y="0" width="558" height="115" style="fill:none;"/><g><path d="M61.12,69.489l0,-16.649l41.281,0c0,0.555 0.108,1.11 0.108,1.776l0,2.886c0,13.652 -3.449,24.196 -10.455,31.744c-7.006,7.547 -16.922,11.321 -29.641,11.321c-6.143,0 -11.748,-0.999 -16.598,-2.886c-4.85,-1.998 -9.162,-4.883 -13.042,-8.879c-3.664,-3.774 -6.467,-8.325 -8.515,-13.43c-2.048,-5.217 -3.018,-10.656 -3.018,-16.316c0,-5.883 0.97,-11.433 2.911,-16.316c2.047,-4.995 4.958,-9.435 8.838,-13.431c3.88,-3.884 8.299,-6.77 13.257,-8.768c5.066,-1.998 10.455,-2.997 16.167,-2.997c7.545,0 14.228,1.554 20.048,4.551c5.82,3.108 10.67,7.658 14.658,13.763l-18.215,8.99c-2.156,-3.107 -4.635,-5.327 -7.329,-6.881c-2.695,-1.443 -5.713,-2.22 -9.162,-2.22c-6.251,0 -11.209,2.109 -14.874,6.438c-3.556,4.328 -5.389,10.211 -5.389,17.759c0,7.547 1.833,13.43 5.389,17.758c3.665,4.329 8.623,6.549 14.874,6.549c5.39,0 9.809,-1.332 13.365,-3.996c3.557,-2.774 5.713,-6.326 6.252,-10.766l-20.91,0Z" style="fill:#aa1c89;fill-rule:nonzero;"/><path d="M115.335,98.68l0,-79.36l21.017,0l0,60.824l26.084,0l0,18.536l-47.101,0Z" style="fill:#aa1c89;fill-rule:nonzero;"/><path d="M193.046,69.045l20.91,0l-7.868,-26.194c-0.216,-0.777 -0.539,-2.109 -0.97,-3.885c-0.431,-1.776 -0.97,-3.996 -1.617,-6.771c-0.431,1.887 -0.862,3.774 -1.401,5.55c-0.431,1.776 -0.862,3.441 -1.294,5.106l-7.76,26.194Zm-29.425,29.635l26.623,-79.36l26.299,0l26.622,79.36l-20.91,0l-3.88,-14.207l-29.856,0l-3.988,14.207l-20.91,0Z" style="fill:#aa1c89;fill-rule:nonzero;"/><path d="M250.494,98.68l0,-79.36l16.06,0c11.964,0 20.479,0.555 25.437,1.776c4.958,1.11 9.269,2.997 13.041,5.771c4.851,3.441 8.623,7.992 11.102,13.431c2.479,5.438 3.772,11.765 3.772,18.758c0,6.992 -1.293,13.208 -3.772,18.757c-2.479,5.439 -6.251,9.879 -11.102,13.431c-3.772,2.664 -7.976,4.55 -12.718,5.771c-4.742,1.11 -12.179,1.665 -22.203,1.665l-19.617,0Zm20.802,-17.759l3.557,0c8.192,0 14.228,-1.776 18,-5.216c3.88,-3.552 5.712,-8.991 5.712,-16.649c0,-7.548 -1.832,-13.098 -5.712,-16.649c-3.772,-3.552 -9.808,-5.328 -18,-5.328l-3.557,0l0,43.842Z" style="fill:#aa1c89;fill-rule:nonzero;"/><path d="M359.014,54.616c5.066,2.22 8.838,5.106 11.425,8.768c2.479,3.663 3.772,7.992 3.772,12.987c0,7.214 -2.263,13.097 -6.79,17.648c-4.527,4.439 -10.455,6.659 -17.892,6.659c-6.036,0 -11.21,-1.554 -15.305,-4.773c-4.096,-3.218 -6.791,-7.769 -8.3,-13.652l8.3,-4.218c1.185,4.773 3.018,8.436 5.604,10.878c2.587,2.553 5.821,3.774 9.701,3.774c4.635,0 8.299,-1.332 11.209,-4.107c2.803,-2.775 4.204,-6.327 4.204,-10.656c0,-3.551 -0.97,-6.659 -3.018,-9.212c-1.94,-2.664 -4.958,-4.884 -8.946,-6.66l-9.377,-4.106c-5.066,-2.22 -8.946,-5.106 -11.425,-8.547c-2.479,-3.441 -3.773,-7.658 -3.773,-12.431c0,-5.661 2.048,-10.323 6.144,-13.985c4.096,-3.663 9.269,-5.55 15.521,-5.55c4.634,0 8.73,0.999 12.071,2.997c3.342,2.109 6.036,4.995 7.869,8.99l-7.545,4.995c-1.725,-3.108 -3.665,-5.328 -5.82,-6.882c-2.048,-1.443 -4.527,-2.219 -7.222,-2.219c-3.449,0 -6.251,1.109 -8.407,3.218c-2.263,2.22 -3.341,4.995 -3.341,8.325c0,2.775 0.862,5.217 2.587,7.325c1.616,1.998 4.203,3.885 7.76,5.439l10.994,4.995Z" style="fill:#5f227c;fill-rule:nonzero;"/><path d="M386.391,98.68l0,-79.36l9.053,0l0,35.296l32.335,-35.296l10.994,0l-33.089,35.74l36.322,43.62l-11.856,0l-34.706,-42.732l0,42.732l-9.053,0Z" style="fill:#5f227c;fill-rule:nonzero;"/><rect x="450.198" y="19.32" width="9.161" height="79.36" style="fill:#5f227c;fill-rule:nonzero;"/><path d="M478.006,98.68l0,-82.468l56.37,63.377l0,-60.269l8.731,0l0,82.468l-56.371,-62.711l0,59.603l-8.73,0Z" style="fill:#5f227c;fill-rule:nonzero;"/></g></svg>